<?xml version="1.0" standalone="no"?>
<!DOCTYPE svg PUBLIC "-//W3C//DTD SVG 20010904//EN"
 "http://www.w3.org/TR/2001/REC-SVG-20010904/DTD/svg10.dtd">
<svg version="1.0" xmlns="http://www.w3.org/2000/svg"
 width="128.000000pt" height="128.000000pt" viewBox="0 0 128.000000 128.000000"
 preserveAspectRatio="xMidYMid meet">

<g transform="translate(0.000000,128.000000) scale(0.100000,-0.100000)"
fill="#000000" stroke="none">
<path d="M7 1134 c-4 -4 -7 -204 -7 -444 0 -446 3 -477 37 -449 10 9 13 54 13
191 l0 179 51 -3 51 -3 29 -79 c40 -111 74 -165 114 -182 66 -27 115 17 160
143 16 43 32 88 36 101 8 21 12 22 148 22 l139 0 7 -32 c15 -71 66 -185 95
-213 34 -33 75 -37 115 -11 29 19 70 101 101 198 l18 58 66 0 c123 0 136 50
16 60 l-64 5 30 82 c28 79 60 125 103 149 17 9 18 14 7 27 -15 18 -52 9 -86
-21 -22 -20 -61 -102 -86 -182 l-18 -55 -135 -3 -136 -3 -17 57 c-20 68 -57
151 -81 181 -25 32 -72 44 -110 28 -42 -18 -70 -61 -108 -168 l-33 -92 -138
-3 -139 -2 -24 75 c-27 86 -53 140 -87 175 -20 22 -24 36 -26 120 -2 76 -6 95
-18 98 -9 1 -19 0 -23 -4z m696 -308 c14 -28 32 -75 40 -103 l16 -53 -120 0
c-135 0 -131 -3 -99 82 63 163 110 184 163 74z m-599 -64 c14 -40 26 -77 26
-83 0 -5 -18 -9 -40 -9 l-40 0 0 102 c0 118 8 117 54 -10z m336 -160 c0 -19
-49 -152 -65 -176 -30 -45 -52 -51 -80 -20 -22 23 -85 167 -85 194 0 6 43 10
115 10 63 0 115 -4 115 -8z m614 -19 c-14 -58 -57 -153 -80 -178 -29 -31 -51
-24 -82 27 -16 26 -62 156 -62 174 0 2 52 4 115 4 l115 0 -6 -27z"/>
<path d="M5 170 c-4 -7 -3 -16 3 -22 14 -14 45 -2 40 15 -6 16 -34 21 -43 7z"/>
</g>
</svg>
